  0
SECTION
  2
HEADER
  9
$ACADVER
  1
AC1009
  9
$FILLMODE
 70
1
  9
$EXTMIN
 10
-1.8180
 20
-0.4233
 30
0.0000
  9
$EXTMAX
 10
132.7270
 20
70.2233
 30
0.0000
  0
ENDSEC
  0
SECTION
  2
TABLES
  0
TABLE
  2
LTYPE
 70
1
  0
LTYPE
  2
CONTINUOUS
 70
64
  3
Solid line
 72
65
 73
0
 40
0
  0
ENDTAB
  0
TABLE
  2
LAYER
 70
255
  0
LAYER
  2
17
 70
64
 62
82
  6
CONTINUOUS
  0
LAYER
  2
18
 70
64
 62
82
  6
CONTINUOUS
  0
LAYER
  2
20
 70
64
 62
7
  6
CONTINUOUS
  0
ENDTAB
  0
ENDSEC
  0
SECTION
  2
BLOCKS
  0
BLOCK
  8
0
  2
RECT
 70
64
 10
0.0000
 20
0.0000
 30
0.0000
  3
RECT
  0
SOLID
  8
0
 10
-0.5000
 20
-0.5000
 30
0.0000
 11
0.5000
 21
-0.5000
 31
0.0000
 12
-0.5000
 22
0.5000
 32
0.0000
 13
0.5000
 23
0.5000
 33
0.0000
  0
ENDBLK
  8
0
  0
BLOCK
  8
0
  2
PIE
 70
64
 10
0.0000
 20
0.0000
 30
0.0000
  3
PIE
  0
POLYLINE
  8
0
 66
1
 10
0.0000
 20
0.0000
 30
0.0000
 40
0.5000
 41
0.5000
 70
0
  0
VERTEX
  8
0
 10
0.0000
 20
-0.2500
 30
0.0000
 42
1.0000
  0
VERTEX
  8
0
 10
0.0000
 20
0.2500
 30
0.0000
 42
1.0000
  0
VERTEX
  8
0
 10
0.0000
 20
-0.2500
 30
0.0000
  0
SEQEND
  8
0
  0
ENDBLK
  8
0
  0
BLOCK
  8
0
  2
OCTAGONP
 70
64
 10
0.0000
 20
0.0000
 30
0.0000
  3
OCTAGONP
  0
POLYLINE
  8
0
 66
1
 10
0.0000
 20
0.0000
 30
0.0000
 40
0.5000
 41
0.5000
 70
0
  0
VERTEX
  8
0
 10
-0.2500
 20
-0.1036
 30
0.0000
  0
VERTEX
  8
0
 10
-0.2500
 20
0.1036
 30
0.0000
  0
VERTEX
  8
0
 10
-0.1036
 20
0.2500
 30
0.0000
  0
VERTEX
  8
0
 10
0.1036
 20
0.2500
 30
0.0000
  0
VERTEX
  8
0
 10
0.2500
 20
0.1036
 30
0.0000
  0
VERTEX
  8
0
 10
0.2500
 20
-0.1036
 30
0.0000
  0
VERTEX
  8
0
 10
0.1036
 20
-0.2500
 30
0.0000
  0
VERTEX
  8
0
 10
-0.1036
 20
-0.2500
 30
0.0000
  0
VERTEX
  8
0
 10
-0.2500
 20
-0.1036
 30
0.0000
  0
VERTEX
  8
0
 10
-0.2500
 20
0.1036
 30
0.0000
  0
SEQEND
  8
0
  0
ENDBLK
  8
0
  0
BLOCK
  8
0
  2
SQUAREP
 70
64
 10
0.0000
 20
0.0000
 30
0.0000
  3
SQUAREP
  0
SOLID
  8
0
 10
-0.5000
 20
-0.5000
 30
0.0000
 11
0.5000
 21
-0.5000
 31
0.0000
 12
-0.5000
 22
0.5000
 32
0.0000
 13
0.5000
 23
0.5000
 33
0.0000
  0
ENDBLK
  8
0
  0
BLOCK
  8
0
  2
ROUNDP
 70
64
 10
0.0000
 20
0.0000
 30
0.0000
  3
ROUNDP
  0
POLYLINE
  8
0
 66
1
 10
0.0000
 20
0.0000
 30
0.0000
 40
0.5000
 41
0.5000
 70
0
  0
VERTEX
  8
0
 10
0.0000
 20
-0.2500
 30
0.0000
 42
1.0000
  0
VERTEX
  8
0
 10
0.0000
 20
0.2500
 30
0.0000
 42
1.0000
  0
VERTEX
  8
0
 10
0.0000
 20
-0.2500
 30
0.0000
  0
SEQEND
  8
0
  0
ENDBLK
  8
0
  0
BLOCK
  8
0
  2
ANNULUSP
 70
64
 10
0.0000
 20
0.0000
 30
0.0000
  3
ANNULUSP
  0
POLYLINE
  8
0
 66
1
 10
0.0000
 20
0.0000
 30
0.0000
 40
0.5000
 41
0.5000
 70
0
  0
VERTEX
  8
0
 10
0.0000
 20
-0.2500
 30
0.0000
 42
1.0000
  0
VERTEX
  8
0
 10
0.0000
 20
0.2500
 30
0.0000
 42
1.0000
  0
VERTEX
  8
0
 10
0.0000
 20
-0.2500
 30
0.0000
  0
SEQEND
  8
0
  0
ENDBLK
  8
0
  0
BLOCK
  8
0
  2
THERMALP
 70
64
 10
0.0000
 20
0.0000
 30
0.0000
  3
THERMALP
  0
POLYLINE
  8
0
 66
1
 10
0.0000
 20
0.0000
 30
0.0000
 40
0.1000
 41
0.1000
 70
0
  0
VERTEX
  8
0
 10
-0.2379
 20
0.4500
 30
0.0000
  0
VERTEX
  8
0
 10
0.2379
 20
0.4500
 30
0.0000
  0
SEQEND
  8
0
  0
POLYLINE
  8
0
 66
1
 10
0.0000
 20
0.0000
 30
0.0000
 40
0.0500
 41
0.0500
 70
0
  0
VERTEX
  8
0
 10
0.2379
 20
0.4250
 30
0.0000
 42
1.0000
  0
VERTEX
  8
0
 10
0.2379
 20
0.4750
 30
0.0000
  0
SEQEND
  8
0
  0
POLYLINE
  8
0
 66
1
 10
0.0000
 20
0.0000
 30
0.0000
 40
0.0500
 41
0.0500
 70
0
  0
VERTEX
  8
0
 10
-0.2379
 20
0.4750
 30
0.0000
 42
1.0000
  0
VERTEX
  8
0
 10
-0.2379
 20
0.4250
 30
0.0000
  0
SEQEND
  8
0
  0
POLYLINE
  8
0
 66
1
 10
0.0000
 20
0.0000
 30
0.0000
 40
0.1000
 41
0.1000
 70
0
  0
VERTEX
  8
0
 10
0.4500
 20
0.2379
 30
0.0000
  0
VERTEX
  8
0
 10
0.4500
 20
-0.2379
 30
0.0000
  0
SEQEND
  8
0
  0
POLYLINE
  8
0
 66
1
 10
0.0000
 20
0.0000
 30
0.0000
 40
0.0500
 41
0.0500
 70
0
  0
VERTEX
  8
0
 10
0.4250
 20
-0.2379
 30
0.0000
 42
1.0000
  0
VERTEX
  8
0
 10
0.4750
 20
-0.2379
 30
0.0000
  0
SEQEND
  8
0
  0
POLYLINE
  8
0
 66
1
 10
0.0000
 20
0.0000
 30
0.0000
 40
0.0500
 41
0.0500
 70
0
  0
VERTEX
  8
0
 10
0.4750
 20
0.2379
 30
0.0000
 42
1.0000
  0
VERTEX
  8
0
 10
0.4250
 20
0.2379
 30
0.0000
  0
SEQEND
  8
0
  0
POLYLINE
  8
0
 66
1
 10
0.0000
 20
0.0000
 30
0.0000
 40
0.1000
 41
0.1000
 70
0
  0
VERTEX
  8
0
 10
0.2379
 20
-0.4500
 30
0.0000
  0
VERTEX
  8
0
 10
-0.2379
 20
-0.4500
 30
0.0000
  0
SEQEND
  8
0
  0
POLYLINE
  8
0
 66
1
 10
0.0000
 20
0.0000
 30
0.0000
 40
0.0500
 41
0.0500
 70
0
  0
VERTEX
  8
0
 10
-0.2379
 20
-0.4250
 30
0.0000
 42
1.0000
  0
VERTEX
  8
0
 10
-0.2379
 20
-0.4750
 30
0.0000
  0
SEQEND
  8
0
  0
POLYLINE
  8
0
 66
1
 10
0.0000
 20
0.0000
 30
0.0000
 40
0.0500
 41
0.0500
 70
0
  0
VERTEX
  8
0
 10
0.2379
 20
-0.4750
 30
0.0000
 42
1.0000
  0
VERTEX
  8
0
 10
0.2379
 20
-0.4250
 30
0.0000
  0
SEQEND
  8
0
  0
POLYLINE
  8
0
 66
1
 10
0.0000
 20
0.0000
 30
0.0000
 40
0.1000
 41
0.1000
 70
0
  0
VERTEX
  8
0
 10
-0.4500
 20
-0.2379
 30
0.0000
  0
VERTEX
  8
0
 10
-0.4500
 20
0.2379
 30
0.0000
  0
SEQEND
  8
0
  0
POLYLINE
  8
0
 66
1
 10
0.0000
 20
0.0000
 30
0.0000
 40
0.0500
 41
0.0500
 70
0
  0
VERTEX
  8
0
 10
-0.4250
 20
0.2379
 30
0.0000
 42
1.0000
  0
VERTEX
  8
0
 10
-0.4750
 20
0.2379
 30
0.0000
  0
SEQEND
  8
0
  0
POLYLINE
  8
0
 66
1
 10
0.0000
 20
0.0000
 30
0.0000
 40
0.0500
 41
0.0500
 70
0
  0
VERTEX
  8
0
 10
-0.4750
 20
-0.2379
 30
0.0000
 42
1.0000
  0
VERTEX
  8
0
 10
-0.4250
 20
-0.2379
 30
0.0000
  0
SEQEND
  8
0
  0
ENDBLK
  8
0
  0
BLOCK
  8
0
  2
OCTAGONV
 70
64
 10
0.0000
 20
0.0000
 30
0.0000
  3
OCTAGONV
  0
POLYLINE
  8
0
 66
1
 10
0.0000
 20
0.0000
 30
0.0000
 40
0.5000
 41
0.5000
 70
0
  0
VERTEX
  8
0
 10
-0.2500
 20
-0.1036
 30
0.0000
  0
VERTEX
  8
0
 10
-0.2500
 20
0.1036
 30
0.0000
  0
VERTEX
  8
0
 10
-0.1036
 20
0.2500
 30
0.0000
  0
VERTEX
  8
0
 10
0.1036
 20
0.2500
 30
0.0000
  0
VERTEX
  8
0
 10
0.2500
 20
0.1036
 30
0.0000
  0
VERTEX
  8
0
 10
0.2500
 20
-0.1036
 30
0.0000
  0
VERTEX
  8
0
 10
0.1036
 20
-0.2500
 30
0.0000
  0
VERTEX
  8
0
 10
-0.1036
 20
-0.2500
 30
0.0000
  0
VERTEX
  8
0
 10
-0.2500
 20
-0.1036
 30
0.0000
  0
VERTEX
  8
0
 10
-0.2500
 20
0.1036
 30
0.0000
  0
SEQEND
  8
0
  0
ENDBLK
  8
0
  0
BLOCK
  8
0
  2
SQUAREV
 70
64
 10
0.0000
 20
0.0000
 30
0.0000
  3
SQUAREV
  0
SOLID
  8
0
 10
-0.5000
 20
-0.5000
 30
0.0000
 11
0.5000
 21
-0.5000
 31
0.0000
 12
-0.5000
 22
0.5000
 32
0.0000
 13
0.5000
 23
0.5000
 33
0.0000
  0
ENDBLK
  8
0
  0
BLOCK
  8
0
  2
ROUNDV
 70
64
 10
0.0000
 20
0.0000
 30
0.0000
  3
ROUNDV
  0
POLYLINE
  8
0
 66
1
 10
0.0000
 20
0.0000
 30
0.0000
 40
0.5000
 41
0.5000
 70
0
  0
VERTEX
  8
0
 10
0.0000
 20
-0.2500
 30
0.0000
 42
1.0000
  0
VERTEX
  8
0
 10
0.0000
 20
0.2500
 30
0.0000
 42
1.0000
  0
VERTEX
  8
0
 10
0.0000
 20
-0.2500
 30
0.0000
  0
SEQEND
  8
0
  0
ENDBLK
  8
0
  0
BLOCK
  8
0
  2
ANNULUSV
 70
64
 10
0.0000
 20
0.0000
 30
0.0000
  3
ANNULUSV
  0
POLYLINE
  8
0
 66
1
 10
0.0000
 20
0.0000
 30
0.0000
 40
0.5000
 41
0.5000
 70
0
  0
VERTEX
  8
0
 10
0.0000
 20
-0.2500
 30
0.0000
 42
1.0000
  0
VERTEX
  8
0
 10
0.0000
 20
0.2500
 30
0.0000
 42
1.0000
  0
VERTEX
  8
0
 10
0.0000
 20
-0.2500
 30
0.0000
  0
SEQEND
  8
0
  0
ENDBLK
  8
0
  0
BLOCK
  8
0
  2
THERMALV
 70
64
 10
0.0000
 20
0.0000
 30
0.0000
  3
THERMALV
  0
POLYLINE
  8
0
 66
1
 10
0.0000
 20
0.0000
 30
0.0000
 40
0.1000
 41
0.1000
 70
0
  0
VERTEX
  8
0
 10
-0.2379
 20
0.4500
 30
0.0000
  0
VERTEX
  8
0
 10
0.2379
 20
0.4500
 30
0.0000
  0
SEQEND
  8
0
  0
POLYLINE
  8
0
 66
1
 10
0.0000
 20
0.0000
 30
0.0000
 40
0.0500
 41
0.0500
 70
0
  0
VERTEX
  8
0
 10
0.2379
 20
0.4250
 30
0.0000
 42
1.0000
  0
VERTEX
  8
0
 10
0.2379
 20
0.4750
 30
0.0000
  0
SEQEND
  8
0
  0
POLYLINE
  8
0
 66
1
 10
0.0000
 20
0.0000
 30
0.0000
 40
0.0500
 41
0.0500
 70
0
  0
VERTEX
  8
0
 10
-0.2379
 20
0.4750
 30
0.0000
 42
1.0000
  0
VERTEX
  8
0
 10
-0.2379
 20
0.4250
 30
0.0000
  0
SEQEND
  8
0
  0
POLYLINE
  8
0
 66
1
 10
0.0000
 20
0.0000
 30
0.0000
 40
0.1000
 41
0.1000
 70
0
  0
VERTEX
  8
0
 10
0.4500
 20
0.2379
 30
0.0000
  0
VERTEX
  8
0
 10
0.4500
 20
-0.2379
 30
0.0000
  0
SEQEND
  8
0
  0
POLYLINE
  8
0
 66
1
 10
0.0000
 20
0.0000
 30
0.0000
 40
0.0500
 41
0.0500
 70
0
  0
VERTEX
  8
0
 10
0.4250
 20
-0.2379
 30
0.0000
 42
1.0000
  0
VERTEX
  8
0
 10
0.4750
 20
-0.2379
 30
0.0000
  0
SEQEND
  8
0
  0
POLYLINE
  8
0
 66
1
 10
0.0000
 20
0.0000
 30
0.0000
 40
0.0500
 41
0.0500
 70
0
  0
VERTEX
  8
0
 10
0.4750
 20
0.2379
 30
0.0000
 42
1.0000
  0
VERTEX
  8
0
 10
0.4250
 20
0.2379
 30
0.0000
  0
SEQEND
  8
0
  0
POLYLINE
  8
0
 66
1
 10
0.0000
 20
0.0000
 30
0.0000
 40
0.1000
 41
0.1000
 70
0
  0
VERTEX
  8
0
 10
0.2379
 20
-0.4500
 30
0.0000
  0
VERTEX
  8
0
 10
-0.2379
 20
-0.4500
 30
0.0000
  0
SEQEND
  8
0
  0
POLYLINE
  8
0
 66
1
 10
0.0000
 20
0.0000
 30
0.0000
 40
0.0500
 41
0.0500
 70
0
  0
VERTEX
  8
0
 10
-0.2379
 20
-0.4250
 30
0.0000
 42
1.0000
  0
VERTEX
  8
0
 10
-0.2379
 20
-0.4750
 30
0.0000
  0
SEQEND
  8
0
  0
POLYLINE
  8
0
 66
1
 10
0.0000
 20
0.0000
 30
0.0000
 40
0.0500
 41
0.0500
 70
0
  0
VERTEX
  8
0
 10
0.2379
 20
-0.4750
 30
0.0000
 42
1.0000
  0
VERTEX
  8
0
 10
0.2379
 20
-0.4250
 30
0.0000
  0
SEQEND
  8
0
  0
POLYLINE
  8
0
 66
1
 10
0.0000
 20
0.0000
 30
0.0000
 40
0.1000
 41
0.1000
 70
0
  0
VERTEX
  8
0
 10
-0.4500
 20
-0.2379
 30
0.0000
  0
VERTEX
  8
0
 10
-0.4500
 20
0.2379
 30
0.0000
  0
SEQEND
  8
0
  0
POLYLINE
  8
0
 66
1
 10
0.0000
 20
0.0000
 30
0.0000
 40
0.0500
 41
0.0500
 70
0
  0
VERTEX
  8
0
 10
-0.4250
 20
0.2379
 30
0.0000
 42
1.0000
  0
VERTEX
  8
0
 10
-0.4750
 20
0.2379
 30
0.0000
  0
SEQEND
  8
0
  0
POLYLINE
  8
0
 66
1
 10
0.0000
 20
0.0000
 30
0.0000
 40
0.0500
 41
0.0500
 70
0
  0
VERTEX
  8
0
 10
-0.4750
 20
-0.2379
 30
0.0000
 42
1.0000
  0
VERTEX
  8
0
 10
-0.4250
 20
-0.2379
 30
0.0000
  0
SEQEND
  8
0
  0
ENDBLK
  8
0
  0
BLOCK
  8
0
  2
LONGP100
 70
64
 10
0.0000
 20
0.0000
 30
0.0000
  3
LONGP100
  0
POLYLINE
  8
0
 66
1
 10
0.0000
 20
0.0000
 30
0.0000
 40
1.0000
 41
1.0000
 70
0
  0
VERTEX
  8
0
 10
-0.5000
 20
0.0000
 30
0.0000
  0
VERTEX
  8
0
 10
0.5000
 20
0.0000
 30
0.0000
  0
SEQEND
  8
0
  0
POLYLINE
  8
0
 66
1
 10
0.0000
 20
0.0000
 30
0.0000
 40
0.5000
 41
0.5000
 70
0
  0
VERTEX
  8
0
 10
0.5000
 20
-0.2500
 30
0.0000
 42
1.0000
  0
VERTEX
  8
0
 10
0.5000
 20
0.2500
 30
0.0000
  0
SEQEND
  8
0
  0
POLYLINE
  8
0
 66
1
 10
0.0000
 20
0.0000
 30
0.0000
 40
0.5000
 41
0.5000
 70
0
  0
VERTEX
  8
0
 10
-0.5000
 20
0.2500
 30
0.0000
 42
1.0000
  0
VERTEX
  8
0
 10
-0.5000
 20
-0.2500
 30
0.0000
  0
SEQEND
  8
0
  0
ENDBLK
  8
0
  0
ENDSEC
  0
SECTION
  2
ENTITIES
  0
POLYLINE
  8
20
 66
1
 10
0.0000
 20
0.0000
 30
0.0000
 40
0.3000
 41
0.3000
 70
0
  0
VERTEX
  8
20
 10
0.0000
 20
0.0000
 30
0.0000
  0
VERTEX
  8
20
 10
128.6000
 20
0.0000
 30
0.0000
  0
SEQEND
  8
0
  0
POLYLINE
  8
20
 66
1
 10
0.0000
 20
0.0000
 30
0.0000
 40
0.1500
 41
0.1500
 70
0
  0
VERTEX
  8
20
 10
128.6000
 20
-0.0750
 30
0.0000
 42
1.0000
  0
VERTEX
  8
20
 10
128.6000
 20
0.0750
 30
0.0000
  0
SEQEND
  8
0
  0
POLYLINE
  8
20
 66
1
 10
0.0000
 20
0.0000
 30
0.0000
 40
0.1500
 41
0.1500
 70
0
  0
VERTEX
  8
20
 10
0.0000
 20
0.0750
 30
0.0000
 42
1.0000
  0
VERTEX
  8
20
 10
0.0000
 20
-0.0750
 30
0.0000
  0
SEQEND
  8
0
  0
POLYLINE
  8
20
 66
1
 10
0.0000
 20
0.0000
 30
0.0000
 40
0.3000
 41
0.3000
 70
0
  0
VERTEX
  8
20
 10
128.6000
 20
0.0000
 30
0.0000
  0
VERTEX
  8
20
 10
128.6000
 20
70.0000
 30
0.0000
  0
SEQEND
  8
0
  0
POLYLINE
  8
20
 66
1
 10
0.0000
 20
0.0000
 30
0.0000
 40
0.1500
 41
0.1500
 70
0
  0
VERTEX
  8
20
 10
128.6750
 20
70.0000
 30
0.0000
 42
1.0000
  0
VERTEX
  8
20
 10
128.5250
 20
70.0000
 30
0.0000
  0
SEQEND
  8
0
  0
POLYLINE
  8
20
 66
1
 10
0.0000
 20
0.0000
 30
0.0000
 40
0.1500
 41
0.1500
 70
0
  0
VERTEX
  8
20
 10
128.5250
 20
0.0000
 30
0.0000
 42
1.0000
  0
VERTEX
  8
20
 10
128.6750
 20
0.0000
 30
0.0000
  0
SEQEND
  8
0
  0
POLYLINE
  8
20
 66
1
 10
0.0000
 20
0.0000
 30
0.0000
 40
0.3000
 41
0.3000
 70
0
  0
VERTEX
  8
20
 10
128.6000
 20
70.0000
 30
0.0000
  0
VERTEX
  8
20
 10
0.0000
 20
70.0000
 30
0.0000
  0
SEQEND
  8
0
  0
POLYLINE
  8
20
 66
1
 10
0.0000
 20
0.0000
 30
0.0000
 40
0.1500
 41
0.1500
 70
0
  0
VERTEX
  8
20
 10
0.0000
 20
70.0750
 30
0.0000
 42
1.0000
  0
VERTEX
  8
20
 10
0.0000
 20
69.9250
 30
0.0000
  0
SEQEND
  8
0
  0
POLYLINE
  8
20
 66
1
 10
0.0000
 20
0.0000
 30
0.0000
 40
0.1500
 41
0.1500
 70
0
  0
VERTEX
  8
20
 10
128.6000
 20
69.9250
 30
0.0000
 42
1.0000
  0
VERTEX
  8
20
 10
128.6000
 20
70.0750
 30
0.0000
  0
SEQEND
  8
0
  0
POLYLINE
  8
20
 66
1
 10
0.0000
 20
0.0000
 30
0.0000
 40
0.3000
 41
0.3000
 70
0
  0
VERTEX
  8
20
 10
0.0000
 20
70.0000
 30
0.0000
  0
VERTEX
  8
20
 10
0.0000
 20
0.0000
 30
0.0000
  0
SEQEND
  8
0
  0
POLYLINE
  8
20
 66
1
 10
0.0000
 20
0.0000
 30
0.0000
 40
0.1500
 41
0.1500
 70
0
  0
VERTEX
  8
20
 10
-0.0750
 20
0.0000
 30
0.0000
 42
1.0000
  0
VERTEX
  8
20
 10
0.0750
 20
0.0000
 30
0.0000
  0
SEQEND
  8
0
  0
POLYLINE
  8
20
 66
1
 10
0.0000
 20
0.0000
 30
0.0000
 40
0.1500
 41
0.1500
 70
0
  0
VERTEX
  8
20
 10
0.0750
 20
70.0000
 30
0.0000
 42
1.0000
  0
VERTEX
  8
20
 10
-0.0750
 20
70.0000
 30
0.0000
  0
SEQEND
  8
0
  0
INSERT
  8
17
  2
LONGP100
 10
13.9750
 20
6.8000
 30
0.0000
 41
2.0320
 42
2.0320
 43
1.0000
 50
90.0000
  0
INSERT
  8
17
  2
LONGP100
 10
13.9750
 20
6.8000
 30
0.0000
 41
2.0320
 42
2.0320
 43
1.0000
 50
90.0000
  0
INSERT
  8
17
  2
LONGP100
 10
7.7520
 20
6.8000
 30
0.0000
 41
2.0320
 42
2.0320
 43
1.0000
 50
90.0000
  0
INSERT
  8
17
  2
LONGP100
 10
7.7520
 20
6.8000
 30
0.0000
 41
2.0320
 42
2.0320
 43
1.0000
 50
90.0000
  0
INSERT
  8
17
  2
LONGP100
 10
10.8000
 20
1.8470
 30
0.0000
 41
2.0320
 42
2.0320
 43
1.0000
 50
180.0000
  0
INSERT
  8
17
  2
LONGP100
 10
10.8000
 20
1.8470
 30
0.0000
 41
2.0320
 42
2.0320
 43
1.0000
 50
180.0000
  0
INSERT
  8
17
  2
LONGP100
 10
119.6900
 20
17.7000
 30
0.0000
 41
1.4580
 42
1.4580
 43
1.0000
 50
180.0000
  0
INSERT
  8
17
  2
LONGP100
 10
119.6900
 20
17.7000
 30
0.0000
 41
1.4580
 42
1.4580
 43
1.0000
 50
180.0000
  0
INSERT
  8
17
  2
LONGP100
 10
119.6900
 20
20.2000
 30
0.0000
 41
1.4580
 42
1.4580
 43
1.0000
 50
180.0000
  0
INSERT
  8
17
  2
LONGP100
 10
119.6900
 20
20.2000
 30
0.0000
 41
1.4580
 42
1.4580
 43
1.0000
 50
180.0000
  0
INSERT
  8
17
  2
LONGP100
 10
119.6900
 20
22.2000
 30
0.0000
 41
1.4580
 42
1.4580
 43
1.0000
 50
180.0000
  0
INSERT
  8
17
  2
LONGP100
 10
119.6900
 20
22.2000
 30
0.0000
 41
1.4580
 42
1.4580
 43
1.0000
 50
180.0000
  0
INSERT
  8
17
  2
LONGP100
 10
119.6900
 20
24.7000
 30
0.0000
 41
1.4580
 42
1.4580
 43
1.0000
 50
180.0000
  0
INSERT
  8
17
  2
LONGP100
 10
119.6900
 20
24.7000
 30
0.0000
 41
1.4580
 42
1.4580
 43
1.0000
 50
180.0000
  0
INSERT
  8
17
  2
OCTAGONP
 10
122.4000
 20
14.6300
 30
0.0000
 41
3.3160
 42
3.3160
 43
1.0000
 50
90.0000
  0
INSERT
  8
17
  2
OCTAGONP
 10
122.4000
 20
14.6300
 30
0.0000
 41
3.3160
 42
3.3160
 43
1.0000
 50
90.0000
  0
INSERT
  8
17
  2
OCTAGONP
 10
122.4000
 20
27.7700
 30
0.0000
 41
3.3160
 42
3.3160
 43
1.0000
 50
90.0000
  0
INSERT
  8
17
  2
OCTAGONP
 10
122.4000
 20
27.7700
 30
0.0000
 41
3.3160
 42
3.3160
 43
1.0000
 50
90.0000
  0
INSERT
  8
17
  2
ROUNDP
 10
18.1414
 20
50.9556
 30
0.0000
 41
0.9080
 42
0.9080
 43
1.0000
 50
315.0000
  0
INSERT
  8
17
  2
ROUNDP
 10
18.1414
 20
50.9556
 30
0.0000
 41
0.9080
 42
0.9080
 43
1.0000
 50
315.0000
  0
INSERT
  8
17
  2
ROUNDP
 10
19.2728
 20
49.8243
 30
0.0000
 41
0.9080
 42
0.9080
 43
1.0000
 50
315.0000
  0
INSERT
  8
17
  2
ROUNDP
 10
19.2728
 20
49.8243
 30
0.0000
 41
0.9080
 42
0.9080
 43
1.0000
 50
315.0000
  0
INSERT
  8
17
  2
ROUNDP
 10
18.4243
 20
48.9757
 30
0.0000
 41
0.9080
 42
0.9080
 43
1.0000
 50
315.0000
  0
INSERT
  8
17
  2
ROUNDP
 10
18.4243
 20
48.9757
 30
0.0000
 41
0.9080
 42
0.9080
 43
1.0000
 50
315.0000
  0
INSERT
  8
17
  2
ROUNDP
 10
17.5757
 20
48.1272
 30
0.0000
 41
0.9080
 42
0.9080
 43
1.0000
 50
315.0000
  0
INSERT
  8
17
  2
ROUNDP
 10
17.5757
 20
48.1272
 30
0.0000
 41
0.9080
 42
0.9080
 43
1.0000
 50
315.0000
  0
INSERT
  8
17
  2
ROUNDP
 10
16.4444
 20
49.2586
 30
0.0000
 41
0.9080
 42
0.9080
 43
1.0000
 50
315.0000
  0
INSERT
  8
17
  2
ROUNDP
 10
16.4444
 20
49.2586
 30
0.0000
 41
0.9080
 42
0.9080
 43
1.0000
 50
315.0000
  0
INSERT
  8
17
  2
ROUNDP
 10
17.2929
 20
50.1071
 30
0.0000
 41
0.9080
 42
0.9080
 43
1.0000
 50
315.0000
  0
INSERT
  8
17
  2
ROUNDP
 10
17.2929
 20
50.1071
 30
0.0000
 41
0.9080
 42
0.9080
 43
1.0000
 50
315.0000
  0
INSERT
  8
17
  2
ROUNDP
 10
27.0000
 20
19.3870
 30
0.0000
 41
1.3208
 42
1.3208
 43
1.0000
 50
90.0000
  0
INSERT
  8
17
  2
ROUNDP
 10
27.0000
 20
19.3870
 30
0.0000
 41
1.3208
 42
1.3208
 43
1.0000
 50
90.0000
  0
INSERT
  8
17
  2
ROUNDP
 10
27.0000
 20
24.2130
 30
0.0000
 41
1.3208
 42
1.3208
 43
1.0000
 50
90.0000
  0
INSERT
  8
17
  2
ROUNDP
 10
27.0000
 20
24.2130
 30
0.0000
 41
1.3208
 42
1.3208
 43
1.0000
 50
90.0000
  0
CIRCLE
  8
20
 10
3.9800
 20
19.7900
 30
0.0000
 40
0.4000
  0
CIRCLE
  8
20
 10
3.9800
 20
15.8900
 30
0.0000
 40
0.4000
  0
INSERT
  8
17
  2
ROUNDP
 10
5.2800
 20
21.4900
 30
0.0000
 41
1.5080
 42
1.5080
 43
1.0000
 50
270.0000
  0
INSERT
  8
17
  2
ROUNDP
 10
5.2800
 20
21.4900
 30
0.0000
 41
1.5080
 42
1.5080
 43
1.0000
 50
270.0000
  0
INSERT
  8
17
  2
ROUNDP
 10
5.2800
 20
14.0900
 30
0.0000
 41
1.5080
 42
1.5080
 43
1.0000
 50
270.0000
  0
INSERT
  8
17
  2
ROUNDP
 10
5.2800
 20
14.0900
 30
0.0000
 41
1.5080
 42
1.5080
 43
1.0000
 50
270.0000
  0
INSERT
  8
17
  2
ROUNDP
 10
1.7800
 20
21.4900
 30
0.0000
 41
1.5080
 42
1.5080
 43
1.0000
 50
270.0000
  0
INSERT
  8
17
  2
ROUNDP
 10
1.7800
 20
21.4900
 30
0.0000
 41
1.5080
 42
1.5080
 43
1.0000
 50
270.0000
  0
INSERT
  8
17
  2
ROUNDP
 10
1.7800
 20
14.0900
 30
0.0000
 41
1.5080
 42
1.5080
 43
1.0000
 50
270.0000
  0
INSERT
  8
17
  2
ROUNDP
 10
1.7800
 20
14.0900
 30
0.0000
 41
1.5080
 42
1.5080
 43
1.0000
 50
270.0000
  0
INSERT
  8
17
  2
ROUNDP
 10
41.2700
 20
26.4700
 30
0.0000
 41
1.0080
 42
1.0080
 43
1.0000
 50
270.0000
  0
INSERT
  8
17
  2
ROUNDP
 10
41.2700
 20
26.4700
 30
0.0000
 41
1.0080
 42
1.0080
 43
1.0000
 50
270.0000
  0
INSERT
  8
17
  2
ROUNDP
 10
41.2700
 20
23.9300
 30
0.0000
 41
1.0080
 42
1.0080
 43
1.0000
 50
270.0000
  0
INSERT
  8
17
  2
ROUNDP
 10
41.2700
 20
23.9300
 30
0.0000
 41
1.0080
 42
1.0080
 43
1.0000
 50
270.0000
  0
INSERT
  8
17
  2
ROUNDP
 10
40.0000
 20
25.2000
 30
0.0000
 41
1.0080
 42
1.0080
 43
1.0000
 50
270.0000
  0
INSERT
  8
17
  2
ROUNDP
 10
40.0000
 20
25.2000
 30
0.0000
 41
1.0080
 42
1.0080
 43
1.0000
 50
270.0000
  0
INSERT
  8
17
  2
ROUNDP
 10
38.7300
 20
26.4700
 30
0.0000
 41
1.0080
 42
1.0080
 43
1.0000
 50
270.0000
  0
INSERT
  8
17
  2
ROUNDP
 10
38.7300
 20
26.4700
 30
0.0000
 41
1.0080
 42
1.0080
 43
1.0000
 50
270.0000
  0
INSERT
  8
17
  2
ROUNDP
 10
38.7300
 20
23.9300
 30
0.0000
 41
1.0080
 42
1.0080
 43
1.0000
 50
270.0000
  0
INSERT
  8
17
  2
ROUNDP
 10
38.7300
 20
23.9300
 30
0.0000
 41
1.0080
 42
1.0080
 43
1.0000
 50
270.0000
  0
INSERT
  8
18
  2
ROUNDV
 10
9.0000
 20
27.2000
 30
0.0000
 41
1.2700
 42
1.2700
 43
1.0000
 50
0.0000
  0
INSERT
  8
18
  2
ROUNDV
 10
28.8000
 20
31.2000
 30
0.0000
 41
1.2700
 42
1.2700
 43
1.0000
 50
0.0000
  0
INSERT
  8
18
  2
ROUNDV
 10
3.0000
 20
50.2000
 30
0.0000
 41
1.2700
 42
1.2700
 43
1.0000
 50
0.0000
  0
INSERT
  8
18
  2
ROUNDV
 10
5.6000
 20
32.0000
 30
0.0000
 41
1.2700
 42
1.2700
 43
1.0000
 50
0.0000
  0
INSERT
  8
18
  2
ROUNDV
 10
4.4000
 20
43.8000
 30
0.0000
 41
1.2700
 42
1.2700
 43
1.0000
 50
0.0000
  0
INSERT
  8
18
  2
ROUNDV
 10
1.6000
 20
12.0000
 30
0.0000
 41
1.2700
 42
1.2700
 43
1.0000
 50
0.0000
  0
INSERT
  8
18
  2
ROUNDV
 10
16.8000
 20
20.6000
 30
0.0000
 41
1.2700
 42
1.2700
 43
1.0000
 50
0.0000
  0
INSERT
  8
18
  2
ROUNDV
 10
16.8000
 20
16.2000
 30
0.0000
 41
1.2700
 42
1.2700
 43
1.0000
 50
0.0000
  0
INSERT
  8
18
  2
ROUNDV
 10
10.6000
 20
29.0000
 30
0.0000
 41
1.2700
 42
1.2700
 43
1.0000
 50
0.0000
  0
INSERT
  8
18
  2
ROUNDV
 10
23.8000
 20
68.2000
 30
0.0000
 41
1.2700
 42
1.2700
 43
1.0000
 50
0.0000
  0
INSERT
  8
18
  2
ROUNDV
 10
24.2000
 20
41.6000
 30
0.0000
 41
1.2700
 42
1.2700
 43
1.0000
 50
0.0000
  0
INSERT
  8
18
  2
ROUNDV
 10
9.4000
 20
56.8000
 30
0.0000
 41
1.2700
 42
1.2700
 43
1.0000
 50
0.0000
  0
INSERT
  8
18
  2
ROUNDV
 10
21.8000
 20
52.2000
 30
0.0000
 41
1.2700
 42
1.2700
 43
1.0000
 50
0.0000
  0
INSERT
  8
18
  2
ROUNDV
 10
7.4000
 20
48.6000
 30
0.0000
 41
1.2700
 42
1.2700
 43
1.0000
 50
0.0000
  0
INSERT
  8
18
  2
ROUNDV
 10
17.8000
 20
43.6000
 30
0.0000
 41
1.2700
 42
1.2700
 43
1.0000
 50
0.0000
  0
INSERT
  8
18
  2
ROUNDV
 10
18.0000
 20
58.6000
 30
0.0000
 41
1.2700
 42
1.2700
 43
1.0000
 50
0.0000
  0
INSERT
  8
18
  2
ROUNDV
 10
8.8000
 20
11.8000
 30
0.0000
 41
1.2700
 42
1.2700
 43
1.0000
 50
0.0000
  0
INSERT
  8
18
  2
ROUNDV
 10
38.2000
 20
3.6000
 30
0.0000
 41
5.2160
 42
5.2160
 43
1.0000
 50
0.0000
  0
INSERT
  8
18
  2
ROUNDV
 10
28.6000
 20
23.0000
 30
0.0000
 41
1.2700
 42
1.2700
 43
1.0000
 50
0.0000
  0
INSERT
  8
18
  2
ROUNDV
 10
28.6000
 20
20.2000
 30
0.0000
 41
1.2700
 42
1.2700
 43
1.0000
 50
0.0000
  0
INSERT
  8
18
  2
ROUNDV
 10
2.6000
 20
67.4000
 30
0.0000
 41
5.2160
 42
5.2160
 43
1.0000
 50
0.0000
  0
INSERT
  8
18
  2
ROUNDV
 10
125.8000
 20
2.6000
 30
0.0000
 41
5.2160
 42
5.2160
 43
1.0000
 50
0.0000
  0
INSERT
  8
18
  2
ROUNDV
 10
125.8000
 20
67.4000
 30
0.0000
 41
5.2160
 42
5.2160
 43
1.0000
 50
0.0000
  0
INSERT
  8
18
  2
ROUNDV
 10
9.8000
 20
45.8000
 30
0.0000
 41
1.2700
 42
1.2700
 43
1.0000
 50
0.0000
  0
INSERT
  8
18
  2
ROUNDV
 10
9.8000
 20
48.6000
 30
0.0000
 41
1.2700
 42
1.2700
 43
1.0000
 50
0.0000
  0
INSERT
  8
18
  2
ROUNDV
 10
20.4000
 20
35.8000
 30
0.0000
 41
1.2700
 42
1.2700
 43
1.0000
 50
0.0000
  0
INSERT
  8
18
  2
ROUNDV
 10
40.6000
 20
47.4000
 30
0.0000
 41
1.2700
 42
1.2700
 43
1.0000
 50
0.0000
  0
INSERT
  8
18
  2
ROUNDV
 10
4.4000
 20
55.0000
 30
0.0000
 41
1.2700
 42
1.2700
 43
1.0000
 50
0.0000
  0
INSERT
  8
18
  2
ROUNDV
 10
7.4000
 20
51.6000
 30
0.0000
 41
1.2700
 42
1.2700
 43
1.0000
 50
0.0000
  0
INSERT
  8
18
  2
ROUNDV
 10
11.0000
 20
39.0000
 30
0.0000
 41
1.2700
 42
1.2700
 43
1.0000
 50
0.0000
  0
INSERT
  8
18
  2
ROUNDV
 10
16.0000
 20
43.4000
 30
0.0000
 41
1.2700
 42
1.2700
 43
1.0000
 50
0.0000
  0
INSERT
  8
18
  2
ROUNDV
 10
19.6000
 20
43.1000
 30
0.0000
 41
1.2700
 42
1.2700
 43
1.0000
 50
0.0000
  0
INSERT
  8
18
  2
ROUNDV
 10
16.2000
 20
58.6000
 30
0.0000
 41
1.2700
 42
1.2700
 43
1.0000
 50
0.0000
  0
INSERT
  8
18
  2
ROUNDV
 10
28.6000
 20
61.0000
 30
0.0000
 41
1.2700
 42
1.2700
 43
1.0000
 50
0.0000
  0
INSERT
  8
18
  2
ROUNDV
 10
14.4000
 20
58.6000
 30
0.0000
 41
1.2700
 42
1.2700
 43
1.0000
 50
0.0000
  0
INSERT
  8
18
  2
ROUNDV
 10
27.0000
 20
61.0000
 30
0.0000
 41
1.2700
 42
1.2700
 43
1.0000
 50
0.0000
  0
INSERT
  8
18
  2
ROUNDV
 10
11.2000
 20
49.8000
 30
0.0000
 41
1.2700
 42
1.2700
 43
1.0000
 50
0.0000
  0
INSERT
  8
18
  2
ROUNDV
 10
6.0000
 20
55.0000
 30
0.0000
 41
1.2700
 42
1.2700
 43
1.0000
 50
0.0000
  0
INSERT
  8
18
  2
ROUNDV
 10
10.6000
 20
51.4000
 30
0.0000
 41
1.2700
 42
1.2700
 43
1.0000
 50
0.0000
  0
INSERT
  8
18
  2
ROUNDV
 10
7.8000
 20
55.0000
 30
0.0000
 41
1.2700
 42
1.2700
 43
1.0000
 50
0.0000
  0
INSERT
  8
18
  2
ROUNDV
 10
12.4000
 20
52.0000
 30
0.0000
 41
1.2700
 42
1.2700
 43
1.0000
 50
0.0000
  0
INSERT
  8
18
  2
ROUNDV
 10
9.4000
 20
55.0000
 30
0.0000
 41
1.2700
 42
1.2700
 43
1.0000
 50
0.0000
  0
INSERT
  8
18
  2
ROUNDV
 10
12.6000
 20
58.6000
 30
0.0000
 41
1.2700
 42
1.2700
 43
1.0000
 50
0.0000
  0
INSERT
  8
18
  2
ROUNDV
 10
23.8000
 20
62.4000
 30
0.0000
 41
1.2700
 42
1.2700
 43
1.0000
 50
0.0000
  0
INSERT
  8
18
  2
ROUNDV
 10
29.8000
 20
44.4000
 30
0.0000
 41
1.2700
 42
1.2700
 43
1.0000
 50
0.0000
  0
INSERT
  8
18
  2
ROUNDV
 10
33.4000
 20
61.0000
 30
0.0000
 41
1.2700
 42
1.2700
 43
1.0000
 50
0.0000
  0
INSERT
  8
18
  2
ROUNDV
 10
26.2000
 20
44.4000
 30
0.0000
 41
1.2700
 42
1.2700
 43
1.0000
 50
0.0000
  0
INSERT
  8
18
  2
ROUNDV
 10
30.2000
 20
61.0000
 30
0.0000
 41
1.2700
 42
1.2700
 43
1.0000
 50
0.0000
  0
INSERT
  8
18
  2
ROUNDV
 10
28.0000
 20
44.4000
 30
0.0000
 41
1.2700
 42
1.2700
 43
1.0000
 50
0.0000
  0
INSERT
  8
18
  2
ROUNDV
 10
31.8000
 20
61.0000
 30
0.0000
 41
1.2700
 42
1.2700
 43
1.0000
 50
0.0000
  0
INSERT
  8
18
  2
ROUNDV
 10
24.4000
 20
21.6000
 30
0.0000
 41
1.2700
 42
1.2700
 43
1.0000
 50
0.0000
  0
INSERT
  8
18
  2
ROUNDV
 10
25.2000
 20
26.0000
 30
0.0000
 41
1.2700
 42
1.2700
 43
1.0000
 50
0.0000
  0
INSERT
  8
18
  2
ROUNDV
 10
29.6000
 20
28.2000
 30
0.0000
 41
1.2700
 42
1.2700
 43
1.0000
 50
0.0000
  0
INSERT
  8
18
  2
ROUNDV
 10
43.2000
 20
33.2000
 30
0.0000
 41
1.2700
 42
1.2700
 43
1.0000
 50
0.0000
  0
INSERT
  8
18
  2
ROUNDV
 10
31.4000
 20
21.2000
 30
0.0000
 41
1.2700
 42
1.2700
 43
1.0000
 50
0.0000
  0
INSERT
  8
18
  2
ROUNDV
 10
45.0000
 20
19.0000
 30
0.0000
 41
1.2700
 42
1.2700
 43
1.0000
 50
0.0000
  0
INSERT
  8
18
  2
ROUNDV
 10
14.0000
 20
43.2000
 30
0.0000
 41
1.2700
 42
1.2700
 43
1.0000
 50
0.0000
  0
INSERT
  8
18
  2
ROUNDV
 10
11.4747
 20
44.9253
 30
0.0000
 41
1.2700
 42
1.2700
 43
1.0000
 50
0.0000
  0
INSERT
  8
18
  2
ROUNDV
 10
21.0000
 20
56.4000
 30
0.0000
 41
1.2700
 42
1.2700
 43
1.0000
 50
0.0000
  0
ENDSEC
  0
EOF
